<?xml version="1.0" standalone="no"?><!DOCTYPE svg PUBLIC "-//W3C//DTD SVG 1.1//EN" "http://www.w3.org/Graphics/SVG/1.1/DTD/svg11.dtd"><svg t="1753156508170" class="icon" viewBox="0 0 1024 1024" version="1.1" xmlns="http://www.w3.org/2000/svg" p-id="2128" width="200" height="200" xmlns:xlink="http://www.w3.org/1999/xlink"><path d="M748.544 634.88H737.28c-107.52 0-182.272 106.496-145.408 207.872l32.768 92.16c10.24 27.648 30.72 49.152 55.296 60.416 10.24 5.12 21.504 7.168 32.768 7.168H363.52c37.888 0 69.632-30.72 69.632-69.632v-60.416h-57.344c16.384 0 30.72-6.144 40.96-16.384s16.384-24.576 16.384-40.96c0-31.744-25.6-57.344-57.344-57.344h57.344v-27.648c0-56.32-46.08-102.4-102.4-102.4H266.24l-21.504-294.912H716.8l-14.336 196.608c-4.096-1.024-8.192-1.024-12.288-1.024H665.6v25.6c0 44.032 36.864 80.896 82.944 80.896z m0 0" fill="#94C64F" p-id="2129"></path><path d="M740.352 634.88c107.52 0 182.272 106.496 145.408 207.872l-32.768 92.16c-3.072 7.168-6.144 14.336-10.24 21.504-6.144 9.216-13.312 17.408-20.48 23.552-7.168 6.144-15.36 11.264-24.576 15.36-20.48 9.216-43.008 10.24-64.512 2.048-5.12-2.048-10.24-3.072-15.36-4.096-5.12-1.024-9.216-1.024-14.336-1.024-10.24 0-19.456 2.048-28.672 5.12-7.168 2.048-14.336 4.096-21.504 5.12h-10.24c-11.264 0-22.528-3.072-32.768-7.168-25.6-11.264-46.08-32.768-55.296-60.416l-32.768-92.16C484.352 741.376 559.104 634.88 666.624 634.88h73.728z m0 0" fill="#8AB344" p-id="2130"></path><path d="M634.88 733.184h-1.024c-10.24-1.024-18.432-10.24-17.408-20.48l23.552-321.536c1.024-10.24 10.24-18.432 20.48-17.408 10.24 1.024 18.432 10.24 17.408 20.48l-23.552 321.536c-1.024 9.216-9.216 17.408-19.456 17.408z m0 0" fill="#FFFFFF" p-id="2131"></path><path d="M809.984 634.88c107.52 0 182.272 106.496 145.408 207.872l-32.768 92.16c-3.072 7.168-6.144 14.336-10.24 21.504-6.144 9.216-13.312 17.408-20.48 23.552-7.168 6.144-15.36 11.264-24.576 15.36-20.48 9.216-43.008 10.24-64.512 2.048-5.12-2.048-10.24-3.072-15.36-4.096-5.12-1.024-9.216-1.024-14.336-1.024-10.24 0-19.456 2.048-28.672 5.12-7.168 2.048-14.336 4.096-21.504 5.12h-10.24c-11.264 0-22.528-3.072-32.768-7.168-25.6-11.264-46.08-32.768-55.296-60.416l-32.768-92.16C555.008 741.376 629.76 634.88 736.256 634.88h73.728z m0 0" fill="#E9532B" p-id="2132"></path><path d="M720.896 934.912l-32.768-92.16c-34.816-97.28 32.768-199.68 134.144-206.848H737.28c-107.52 0-182.272 106.496-145.408 207.872l32.768 92.16c10.24 27.648 30.72 49.152 55.296 60.416 10.24 5.12 21.504 7.168 32.768 7.168h10.24c7.168-1.024 14.336-2.048 21.504-5.12 9.216-3.072 18.432-5.12 27.648-5.12-23.552-13.312-41.984-33.792-51.2-58.368z m0 0" fill="#D7482A" p-id="2133"></path><path d="M702.464 528.384c39.936 6.144 70.656 39.936 70.656 81.92V634.88H747.52c-46.08 0-82.944-36.864-82.944-82.944v-25.6h25.6c4.096 1.024 8.192 1.024 12.288 2.048z m0 0" fill="#8AB344" p-id="2134"></path><path d="M734.208 206.848L757.76 331.776H203.776l23.552-124.928h506.88z m0 0" fill="#E6E6E6" p-id="2135"></path><path d="M369.664 206.848L358.4 331.776H204.8l7.168-124.928h157.696z m0 0" fill="#CCCCCC" p-id="2136"></path><path d="M396.288 331.776H244.736l48.128 670.72h115.712l-12.288-670.72z m0 0" fill="#8AB344" p-id="2137"></path><path d="M433.152 872.448v60.416c0 38.912-30.72 69.632-69.632 69.632H132.096c-37.888 0-69.632-30.72-69.632-69.632v-60.416h370.688z m0 0M265.216 626.688h64.512c56.32 0 102.4 46.08 102.4 102.4v27.648H62.464v-27.648c0-56.32 46.08-102.4 102.4-102.4h100.352z m0 0" fill="#ECAC3D" p-id="2138"></path><path d="M375.808 756.736c31.744 0 57.344 25.6 57.344 57.344 0 16.384-6.144 30.72-16.384 40.96s-24.576 16.384-40.96 16.384h-256c-31.744 0-57.344-25.6-57.344-57.344 0-16.384 6.144-30.72 16.384-40.96s24.576-16.384 40.96-16.384h256z m0 0" fill="#AB7021" p-id="2139"></path><path d="M237.568 1002.496H132.096c-37.888 0-69.632-30.72-69.632-69.632v-60.416h105.472v60.416c0 37.888 31.744 69.632 69.632 69.632z m0 0M270.336 626.688c-56.32 0-102.4 46.08-102.4 102.4v27.648H62.464v-27.648c0-56.32 46.08-102.4 102.4-102.4h105.472z m0 0" fill="#D7962F" p-id="2140"></path><path d="M225.28 872.448H119.808c-31.744 0-57.344-25.6-57.344-57.344 0-16.384 6.144-30.72 16.384-40.96s24.576-16.384 40.96-16.384H225.28c-16.384 0-30.72 6.144-40.96 16.384s-16.384 24.576-16.384 40.96c0 31.744 25.6 57.344 57.344 57.344z m0 0" fill="#935B24" p-id="2141"></path><path d="M862.208 931.84c-2.048 0-4.096 0-6.144-1.024-10.24-4.096-15.36-14.336-11.264-24.576l32.768-92.16c6.144-16.384 6.144-33.792 0-50.176-4.096-10.24 1.024-21.504 11.264-24.576 10.24-4.096 21.504 1.024 24.576 11.264 9.216 24.576 10.24 52.224 1.024 76.8l-32.768 92.16c-4.096 7.168-11.264 12.288-19.456 12.288z m0 0M365.568 726.016c-7.168 0-14.336-4.096-17.408-11.264-3.072-7.168-10.24-11.264-17.408-11.264h-18.432c-10.24 0-19.456-8.192-19.456-19.456 0-10.24 8.192-19.456 19.456-19.456h18.432c23.552 0 44.032 13.312 53.248 34.816 4.096 10.24 0 21.504-10.24 25.6-3.072 1.024-5.12 1.024-8.192 1.024z m0 0M342.016 968.704h-18.432c-10.24 0-19.456-8.192-19.456-19.456s8.192-19.456 19.456-19.456h18.432c8.192 0 14.336-4.096 17.408-11.264 4.096-10.24 15.36-14.336 25.6-10.24 10.24 4.096 14.336 15.36 10.24 25.6-9.216 20.48-29.696 34.816-53.248 34.816z m0 0M399.36 814.08c0 10.24-8.192 19.456-19.456 19.456-10.24 0-19.456-8.192-19.456-19.456 0-10.24 8.192-19.456 19.456-19.456 11.264 1.024 19.456 9.216 19.456 19.456z m0 0" fill="#FFFFFF" p-id="2142"></path><path d="M882.688 715.776c0 10.24-8.192 19.456-19.456 19.456-10.24 0-19.456-8.192-19.456-19.456 0-10.24 8.192-19.456 19.456-19.456 11.264 1.024 19.456 9.216 19.456 19.456z m0 0" fill="#FFFFFF" p-id="2143"></path><path d="M952.32 690.176c-32.768-47.104-84.992-73.728-142.336-73.728h-13.312c7.168-18.432 25.6-31.744 47.104-31.744 10.24 0 19.456-8.192 19.456-19.456 0-10.24-8.192-19.456-19.456-19.456-22.528 0-44.032 9.216-59.392 23.552-11.264-25.6-33.792-46.08-61.44-55.296l11.264-162.816H757.76c6.144 0 11.264-2.048 14.336-7.168 4.096-4.096 5.12-10.24 4.096-15.36l-23.552-124.928c-2.048-9.216-9.216-15.36-18.432-15.36h-86.016l23.552-133.12c1.024-5.12 4.096-10.24 9.216-12.288 5.12-4.096 10.24-4.096 15.36-2.048l104.448 52.224c9.216 5.12 21.504 1.024 25.6-8.192 5.12-9.216 1.024-21.504-8.192-25.6L713.728 7.168c-16.384-8.192-34.816-8.192-50.176 0-16.384 8.192-26.624 22.528-29.696 39.936l-24.576 140.288H227.328c-9.216 0-17.408 6.144-18.432 15.36L184.32 327.68c-1.024 5.12 0 11.264 4.096 15.36 4.096 4.096 9.216 7.168 14.336 7.168H225.28l18.432 257.024H163.84c-67.584 0-121.856 54.272-121.856 121.856v27.648c0 8.192 5.12 14.336 11.264 17.408-7.168 11.264-11.264 25.6-11.264 39.936s4.096 28.672 11.264 39.936c-7.168 3.072-11.264 9.216-11.264 17.408V931.84c0 49.152 39.936 89.088 89.088 89.088H723.968c9.216-1.024 17.408-3.072 26.624-6.144 7.168-3.072 15.36-4.096 22.528-4.096 4.096 0 7.168 0 11.264 1.024l12.288 3.072c12.288 4.096 23.552 6.144 35.84 6.144 14.336 0 29.696-3.072 43.008-9.216 10.24-5.12 19.456-10.24 27.648-17.408 9.216-8.192 18.432-17.408 24.576-27.648 5.12-8.192 9.216-16.384 12.288-25.6l32.768-92.16c20.48-53.248 13.312-111.616-20.48-158.72z m-197.632-79.872v6.144h-6.144c-34.816 0-63.488-28.672-63.488-63.488v-6.144h6.144c34.816 0 63.488 28.672 63.488 63.488zM242.688 225.28h475.136l16.384 87.04H227.328l15.36-87.04z m22.528 125.952H696.32l-11.264 157.696H665.6c-10.24 0-19.456 8.192-19.456 19.456v25.6c0 28.672 12.288 55.296 31.744 73.728-32.768 12.288-62.464 33.792-83.968 63.488-32.768 47.104-40.96 105.472-21.504 158.72l32.768 92.16c6.144 15.36 14.336 29.696 25.6 41.984h-194.56c10.24-14.336 15.36-31.744 15.36-50.176v-60.416c0-8.192-5.12-14.336-11.264-17.408 7.168-11.264 11.264-25.6 11.264-39.936s-4.096-28.672-11.264-39.936c7.168-3.072 11.264-9.216 11.264-17.408v-27.648c0-67.584-54.272-121.856-121.856-121.856h-47.104l-17.408-258.048zM81.92 815.104c0-21.504 17.408-37.888 37.888-37.888h254.976c21.504 0 37.888 17.408 37.888 37.888 0 21.504-17.408 37.888-37.888 37.888H119.808c-20.48 0-37.888-17.408-37.888-37.888z m0-86.016c0-46.08 36.864-82.944 82.944-82.944h164.864c46.08 0 82.944 36.864 82.944 82.944v8.192H81.92v-8.192z m0 203.776v-40.96h331.776v40.96c0 27.648-22.528 50.176-50.176 50.176H132.096C104.448 983.04 81.92 960.512 81.92 932.864z m856.064-96.256l-32.768 92.16c-2.048 6.144-5.12 12.288-8.192 17.408-4.096 7.168-10.24 13.312-16.384 19.456-6.144 5.12-12.288 9.216-19.456 12.288-15.36 7.168-32.768 8.192-50.176 2.048-6.144-2.048-12.288-4.096-18.432-5.12-5.12-1.024-11.264-1.024-17.408-1.024-12.288 0-24.576 2.048-35.84 6.144-5.12 2.048-11.264 3.072-16.384 4.096-11.264 1.024-22.528-1.024-32.768-5.12-21.504-10.24-37.888-27.648-45.056-49.152l-32.768-92.16c-15.36-41.984-9.216-87.04 16.384-123.904 25.6-36.864 66.56-57.344 110.592-57.344h73.728c45.056 0 84.992 21.504 110.592 57.344 23.552 34.816 29.696 79.872 14.336 122.88z m0 0" fill="#323333" p-id="2144"></path></svg>